<svg width="30.000000" height="30.000000" viewBox="0 0 30 30" fill="none" xmlns="http://www.w3.org/2000/svg" xmlns:xlink="http://www.w3.org/1999/xlink">
	<desc>
			Created with Pixso.
	</desc>
	<defs>
		<clipPath id="clip510_209">
			<rect id="ic:baseline-telegram" width="30.000000" height="30.000000" fill="white" fill-opacity="0"/>
		</clipPath>
	</defs>
	<rect id="ic:baseline-telegram" width="30.000000" height="30.000000" fill="#FFFFFF" fill-opacity="0"/>
	<g clip-path="url(#clip510_209)">
		<path id="Vector" d="M15 2.5C8.09961 2.5 2.5 8.1001 2.5 15C2.5 21.8999 8.09961 27.5 15 27.5C21.9004 27.5 27.5 21.8999 27.5 15C27.5 8.1001 21.9004 2.5 15 2.5ZM20.7998 11C20.6123 12.9751 19.7998 17.7749 19.3877 19.9873C19.2129 20.9248 18.8623 21.2373 18.5371 21.2749C17.8125 21.3374 17.2627 20.7998 16.5625 20.3374C15.4629 19.6123 14.8379 19.1626 13.7754 18.4624C12.5371 17.6499 13.3379 17.2002 14.0498 16.4751C14.2373 16.2876 17.4375 13.375 17.5 13.1123C17.5088 13.0728 17.5078 13.0312 17.4971 12.9922C17.4854 12.9531 17.4658 12.917 17.4375 12.8877C17.3623 12.8252 17.2627 12.8501 17.1748 12.8623C17.0625 12.8877 15.3125 14.0498 11.9004 16.3501C11.4004 16.6875 10.9502 16.8623 10.5498 16.8501C10.0996 16.8374 9.25 16.6001 8.6123 16.3877C7.8252 16.1377 7.21289 16 7.2627 15.5625C7.28711 15.3374 7.59961 15.1123 8.1875 14.875C11.8379 13.2876 14.2627 12.2373 15.4746 11.7373C18.9502 10.2876 19.6621 10.0376 20.1377 10.0376C20.2373 10.0376 20.4746 10.0625 20.625 10.1875C20.75 10.2876 20.7871 10.4248 20.7998 10.5249C20.7871 10.6001 20.8125 10.8252 20.7998 11Z" fill="#EFEAE5" fill-opacity="1.000000" fill-rule="nonzero"/>
	</g>
</svg>
