<svg width="29.166992" height="20.416504" viewBox="0 0 29.167 20.4165" fill="none" xmlns="http://www.w3.org/2000/svg" xmlns:xlink="http://www.w3.org/1999/xlink">
	<desc>
			Created with Pixso.
	</desc>
	<defs/>
	<path id="Vector" d="M11.667 14.5835L19.2354 10.2085L11.667 5.8335L11.667 14.5835ZM28.5254 3.16455C28.7148 3.8501 28.8457 4.76855 28.9336 5.93555C29.0352 7.10205 29.0791 8.1084 29.0791 8.9834L29.167 10.2085C29.167 13.4019 28.9336 15.75 28.5254 17.252C28.1602 18.5645 27.3145 19.4106 26.002 19.7749C25.3164 19.9644 24.0625 20.0957 22.1377 20.1831C20.2412 20.2856 18.5059 20.3291 16.9023 20.3291L14.583 20.4165C8.47266 20.4165 4.66699 20.1831 3.16504 19.7749C1.85254 19.4106 1.00586 18.5645 0.641602 17.252C0.452148 16.5669 0.321289 15.6479 0.233398 14.4814C0.130859 13.3145 0.0878906 12.3081 0.0878906 11.4331L0 10.2085C0 7.01465 0.233398 4.6665 0.641602 3.16455C1.00586 1.85205 1.85254 1.00635 3.16504 0.641602C3.84961 0.452148 5.10449 0.320801 7.0293 0.233398C8.9248 0.131348 10.6602 0.0874023 12.2646 0.0874023L14.583 0C20.6934 0 24.5 0.233398 26.002 0.641602C27.3145 1.00635 28.1602 1.85205 28.5254 3.16455Z" fill="#EFEAE5" fill-opacity="1.000000" fill-rule="nonzero"/>
</svg>
