<?xml version="1.0" standalone="no"?>
<!DOCTYPE svg PUBLIC "-//W3C//DTD SVG 20010904//EN"
 "http://www.w3.org/TR/2001/REC-SVG-20010904/DTD/svg10.dtd">
<svg version="1.0" xmlns="http://www.w3.org/2000/svg"
 width="1600.000000pt" height="1600.000000pt" viewBox="0 0 1600.000000 1600.000000"
 preserveAspectRatio="xMidYMid meet">
<metadata>
Created by potrace 1.14, written by Peter Selinger 2001-2017
</metadata>
<g transform="translate(0.000000,1600.000000) scale(0.100000,-0.100000)"
fill="#000000" stroke="none">
<path d="M6733 12176 c-117 -37 -192 -125 -223 -261 -13 -54 -14 -63 -30 -145
-6 -30 -23 -108 -36 -174 -14 -65 -28 -130 -30 -145 -3 -14 -18 -89 -34 -166
-25 -122 -77 -371 -95 -460 -10 -52 -15 -76 -51 -245 -19 -91 -37 -178 -40
-195 -3 -16 -14 -70 -24 -120 -11 -49 -21 -101 -24 -115 -3 -14 -19 -92 -36
-175 -18 -82 -34 -160 -36 -172 -8 -46 -13 -70 -39 -193 -28 -135 -31 -152
-39 -190 -3 -14 -9 -41 -12 -60 -3 -19 -15 -72 -25 -117 -10 -44 -21 -96 -24
-115 -3 -18 -8 -40 -10 -48 -2 -8 -7 -31 -10 -50 -7 -40 -67 -336 -120 -585
-19 -93 -37 -179 -39 -190 -2 -11 -18 -90 -36 -175 -18 -85 -34 -166 -37 -180
-2 -14 -16 -83 -31 -153 l-28 -128 -289 772 c-205 548 -298 784 -320 813 -37
50 -112 102 -168 117 -63 17 -164 7 -222 -21 -99 -48 -109 -64 -409 -666 -153
-307 -280 -561 -283 -564 -3 -3 -261 -5 -574 -6 -313 0 -572 -4 -576 -7 -3 -4
-18 12 -31 35 -27 47 -116 139 -172 179 -146 104 -391 137 -562 76 -214 -77
-380 -266 -418 -477 -56 -308 104 -600 390 -713 86 -34 108 -38 218 -42 204
-6 396 86 520 250 l50 65 718 3 719 2 47 24 c93 46 121 87 293 431 88 176 162
320 165 320 5 0 79 -194 290 -760 120 -321 312 -834 320 -853 5 -12 28 -74 51
-137 49 -133 72 -173 125 -219 62 -55 118 -75 209 -75 185 0 290 107 331 339
3 17 16 84 30 150 54 261 66 321 70 345 3 14 16 75 29 135 13 61 26 124 29
140 7 43 15 78 37 180 11 50 22 105 25 124 3 18 7 41 9 50 2 9 22 106 45 216
23 110 43 209 46 220 2 11 13 65 24 120 11 55 22 109 24 120 3 11 21 99 41
195 41 203 35 175 74 360 40 192 171 829 177 858 6 33 13 69 19 98 80 386 84
401 86 363 0 -8 2 -21 4 -29 4 -17 5 -22 50 -275 37 -203 42 -229 48 -260 3
-11 8 -40 12 -65 4 -25 9 -54 11 -65 5 -28 45 -244 50 -275 3 -14 17 -88 31
-165 14 -77 27 -149 28 -160 3 -20 10 -55 20 -105 6 -30 23 -124 30 -165 9
-50 29 -163 70 -390 14 -77 28 -150 30 -163 6 -32 24 -133 30 -162 3 -14 7
-36 9 -50 3 -14 8 -42 11 -62 2 -21 9 -57 14 -80 5 -24 12 -59 15 -78 4 -29
26 -149 61 -335 3 -16 8 -46 11 -65 3 -19 7 -42 9 -50 2 -8 7 -31 10 -50 3
-19 17 -96 31 -170 14 -74 27 -151 30 -170 3 -19 7 -42 9 -50 3 -8 7 -33 10
-55 4 -22 8 -47 10 -55 2 -8 7 -31 10 -50 5 -30 30 -170 50 -275 16 -87 37
-203 40 -225 3 -14 7 -36 10 -50 2 -14 14 -77 25 -140 23 -130 23 -125 44
-240 21 -117 25 -140 32 -180 3 -19 7 -42 9 -50 2 -8 7 -31 10 -50 3 -19 15
-82 25 -140 11 -58 21 -116 24 -130 4 -26 16 -91 23 -125 2 -11 6 -36 9 -55 4
-19 7 -39 9 -45 1 -5 5 -28 10 -50 19 -95 91 -187 179 -225 127 -57 286 -21
370 84 45 55 39 41 169 381 63 166 131 341 150 390 20 50 61 158 92 240 32 83
63 164 70 180 12 27 87 223 121 315 7 19 112 292 232 605 121 314 284 738 363
943 79 204 145 372 149 372 3 0 17 -33 32 -72 82 -225 424 -1141 443 -1188 8
-19 53 -138 100 -265 101 -272 107 -285 163 -337 61 -56 122 -81 209 -84 130
-5 213 46 304 188 29 46 71 112 94 148 23 36 163 260 311 498 l269 432 747 0
747 0 30 -44 c62 -89 170 -180 266 -221 178 -77 399 -66 565 28 30 17 60 36
66 42 6 5 28 24 48 40 45 37 125 144 154 206 48 106 66 241 49 364 -25 182
-147 358 -312 451 -110 61 -163 75 -300 80 -120 4 -214 -18 -319 -74 -72 -39
-177 -134 -221 -200 l-25 -38 -833 0 c-457 1 -856 -2 -885 -7 -63 -9 -117 -35
-167 -78 -20 -18 -134 -190 -272 -411 -208 -332 -238 -376 -246 -356 -5 13
-21 57 -36 98 -24 65 -639 1712 -660 1765 -43 114 -98 182 -183 227 -61 32
-188 35 -257 6 -54 -22 -131 -89 -154 -135 -8 -15 -68 -165 -132 -333 -65
-168 -137 -354 -160 -415 -24 -60 -91 -234 -149 -385 -256 -669 -617 -1607
-625 -1625 -24 -54 -121 -313 -121 -322 0 -7 -4 -14 -9 -17 -5 -3 -17 38 -26
92 -23 126 -18 102 -54 297 -17 94 -33 181 -36 195 -5 24 -8 39 -22 120 -8 47
-7 42 -59 325 -25 138 -47 259 -49 270 -16 94 -34 194 -39 220 -3 17 -57 316
-70 385 -2 14 -12 66 -21 115 -10 50 -19 99 -20 110 -2 11 -10 56 -18 100 -9
44 -18 94 -21 110 -2 17 -11 68 -20 115 -8 47 -18 99 -21 115 -2 17 -7 41 -10
55 -5 23 -17 92 -30 165 -2 17 -7 39 -9 50 -6 28 -34 184 -40 220 -3 17 -10
55 -16 85 -6 30 -13 71 -16 90 -3 19 -7 45 -10 58 -2 12 -6 34 -9 50 -7 36
-53 289 -60 327 -2 17 -7 41 -10 55 -6 31 -22 123 -30 170 -3 19 -12 67 -20
105 -7 39 -16 88 -20 110 -3 22 -14 85 -25 140 -11 55 -21 111 -24 125 -2 14
-14 79 -26 145 -12 66 -24 129 -25 140 -18 98 -60 334 -89 490 -20 110 -25
138 -41 230 -8 44 -17 91 -20 105 -3 14 -12 66 -21 115 -54 315 -69 361 -146
430 -85 76 -201 103 -305 71z"/>
</g>
</svg>
