<svg width="18.000000" height="18.000000" viewBox="0 0 18 18" fill="none" xmlns="http://www.w3.org/2000/svg" xmlns:xlink="http://www.w3.org/1999/xlink">
	<desc>
			Created with Pixso.
	</desc>
	<defs>
		<clipPath id="clip315_887">
			<rect id="calendar 1" width="18.000000" height="18.000000" fill="white" fill-opacity="0"/>
		</clipPath>
	</defs>
	<rect id="calendar 1" width="18.000000" height="18.000000" fill="#FFFFFF" fill-opacity="0"/>
	<g clip-path="url(#clip315_887)">
		<path id="Vector" d="M17 6.28125C17 5.2373 17 4.50684 17 4.4375C17 3.66211 16.3691 3.03125 15.5938 3.03125L15.4062 3.03125L15.4062 4.75C15.4062 5.00879 15.1963 5.21875 14.9375 5.21875C14.6787 5.21875 14.4688 5.00879 14.4688 4.75C14.4688 4.22363 14.4688 2.77393 14.4688 2.25C14.4688 1.99121 14.2588 1.78125 14 1.78125C13.7412 1.78125 13.5312 1.99121 13.5312 2.25L13.5312 3.03125L10.4062 3.03125L10.4062 4.75C10.4062 5.00879 10.1963 5.21875 9.9375 5.21875C9.67871 5.21875 9.46875 5.00879 9.46875 4.75C9.46875 4.22363 9.46875 2.77393 9.46875 2.25C9.46875 1.99121 9.25879 1.78125 9 1.78125C8.74121 1.78125 8.53125 1.99121 8.53125 2.25L8.53125 3.03125L5.40625 3.03125L5.40625 4.75C5.40625 5.00879 5.19629 5.21875 4.9375 5.21875C4.67871 5.21875 4.46875 5.00879 4.46875 4.75C4.46875 4.22363 4.46875 2.77393 4.46875 2.25C4.46875 1.99121 4.25879 1.78125 4 1.78125C3.74121 1.78125 3.53125 1.99121 3.53125 2.25L3.53125 3.03125L2.40625 3.03125C1.63086 3.03125 1 3.66211 1 4.4375L1 6.28125L17 6.28125Z" fill="#272727" fill-opacity="0.700000" fill-rule="nonzero"/>
		<path id="Vector" d="M1 7.21875L1 14.8125C1 15.5879 1.63086 16.2188 2.40625 16.2188L15.5938 16.2188C16.3691 16.2188 17 15.5879 17 14.8125C17 14.6118 17 10.2246 17 7.21875C16.708 7.21875 1.16113 7.21875 1 7.21875ZM5.5 13.7188L4.5 13.7188C4.24121 13.7188 4.03125 13.5088 4.03125 13.25C4.03125 12.9912 4.24121 12.7812 4.5 12.7812L5.5 12.7812C5.75879 12.7812 5.96875 12.9912 5.96875 13.25C5.96875 13.5088 5.75879 13.7188 5.5 13.7188ZM5.5 11.7188L4.5 11.7188C4.24121 11.7188 4.03125 11.5088 4.03125 11.25C4.03125 10.9912 4.24121 10.7812 4.5 10.7812L5.5 10.7812C5.75879 10.7812 5.96875 10.9912 5.96875 11.25C5.96875 11.5088 5.75879 11.7188 5.5 11.7188ZM5.5 9.71875L4.5 9.71875C4.24121 9.71875 4.03125 9.50879 4.03125 9.25C4.03125 8.99121 4.24121 8.78125 4.5 8.78125L5.5 8.78125C5.75879 8.78125 5.96875 8.99121 5.96875 9.25C5.96875 9.50879 5.75879 9.71875 5.5 9.71875ZM9.5 13.7188L8.5 13.7188C8.24121 13.7188 8.03125 13.5088 8.03125 13.25C8.03125 12.9912 8.24121 12.7812 8.5 12.7812L9.5 12.7812C9.75879 12.7812 9.96875 12.9912 9.96875 13.25C9.96875 13.5088 9.75879 13.7188 9.5 13.7188ZM9.5 11.7188L8.5 11.7188C8.24121 11.7188 8.03125 11.5088 8.03125 11.25C8.03125 10.9912 8.24121 10.7812 8.5 10.7812L9.5 10.7812C9.75879 10.7812 9.96875 10.9912 9.96875 11.25C9.96875 11.5088 9.75879 11.7188 9.5 11.7188ZM9.5 9.71875L8.5 9.71875C8.24121 9.71875 8.03125 9.50879 8.03125 9.25C8.03125 8.99121 8.24121 8.78125 8.5 8.78125L9.5 8.78125C9.75879 8.78125 9.96875 8.99121 9.96875 9.25C9.96875 9.50879 9.75879 9.71875 9.5 9.71875ZM13.5 13.7188L12.5 13.7188C12.2412 13.7188 12.0312 13.5088 12.0312 13.25C12.0312 12.9912 12.2412 12.7812 12.5 12.7812L13.5 12.7812C13.7588 12.7812 13.9688 12.9912 13.9688 13.25C13.9688 13.5088 13.7588 13.7188 13.5 13.7188ZM13.5 11.7188L12.5 11.7188C12.2412 11.7188 12.0312 11.5088 12.0312 11.25C12.0312 10.9912 12.2412 10.7812 12.5 10.7812L13.5 10.7812C13.7588 10.7812 13.9688 10.9912 13.9688 11.25C13.9688 11.5088 13.7588 11.7188 13.5 11.7188ZM13.5 9.71875L12.5 9.71875C12.2412 9.71875 12.0312 9.50879 12.0312 9.25C12.0312 8.99121 12.2412 8.78125 12.5 8.78125L13.5 8.78125C13.7588 8.78125 13.9688 8.99121 13.9688 9.25C13.9688 9.50879 13.7588 9.71875 13.5 9.71875Z" fill="#272727" fill-opacity="0.700000" fill-rule="nonzero"/>
	</g>
</svg>
