<svg width="16.000000" height="16.000000" viewBox="0 0 16 16" fill="none" xmlns="http://www.w3.org/2000/svg" xmlns:xlink="http://www.w3.org/1999/xlink">
	<desc>
			Created with Pixso.
	</desc>
	<defs/>
	<path id="Vector" d="M14.7559 16L9.15527 10.3999C8.71094 10.7554 8.2002 11.0371 7.62207 11.2446C7.04492 11.4517 6.42969 11.5557 5.77734 11.5557C4.16309 11.5557 2.79688 10.9961 1.67773 9.87744C0.55957 8.7583 0.000976562 7.39209 0 5.77783C0 4.16309 0.55957 2.79639 1.67773 1.67822C2.79688 0.560059 4.16309 0.000488281 5.77734 0C7.39258 0 8.75977 0.55957 9.87793 1.67822C10.9971 2.79688 11.5557 4.16357 11.5557 5.77783C11.5557 6.42969 11.4521 7.04443 11.2441 7.62207C11.0371 8.2002 10.7559 8.71094 10.4004 9.15576L16 14.7554L14.7559 16ZM5.77734 9.77783C6.88867 9.77783 7.83301 9.38916 8.61133 8.61133C9.38965 7.83398 9.77832 6.88965 9.77734 5.77783C9.77734 4.6665 9.38867 3.72217 8.61133 2.94482C7.83398 2.16748 6.88965 1.77832 5.77734 1.77783C4.66699 1.77783 3.72266 2.16699 2.94531 2.94482C2.16699 3.72314 1.77832 4.66748 1.77734 5.77783C1.77734 6.88867 2.16699 7.8335 2.94531 8.61133C3.72266 9.38965 4.66699 9.77832 5.77734 9.77783Z" fill="#D0CBBE" fill-opacity="1.000000" fill-rule="nonzero"/>
</svg>
