<svg width="18.000000" height="18.000000" viewBox="0 0 18 18" fill="none" xmlns="http://www.w3.org/2000/svg" xmlns:xlink="http://www.w3.org/1999/xlink">
	<desc>
			Created with Pixso.
	</desc>
	<defs>
		<clipPath id="clip315_893">
			<rect id="eva:eye-fill" width="18.000000" height="18.000000" fill="white" fill-opacity="0"/>
		</clipPath>
	</defs>
	<rect id="eva:eye-fill" width="18.000000" height="18.000000" fill="#FFFFFF" fill-opacity="0"/>
	<g clip-path="url(#clip315_893)">
		<path id="Vector" d="M10.125 9C10.125 9.62109 9.62109 10.125 9 10.125C8.37891 10.125 7.875 9.62109 7.875 9C7.875 8.37891 8.37891 7.875 9 7.875C9.62109 7.875 10.125 8.37891 10.125 9Z" fill="#272727" fill-opacity="0.700000" fill-rule="evenodd"/>
		<path id="Vector" d="M16.4023 8.62549C15.9229 7.79297 13.2822 3.61523 8.79785 3.75049C4.65039 3.85547 2.25 7.50049 1.59766 8.62549C1.53125 8.73926 1.49707 8.86865 1.49707 9.00049C1.49707 9.13184 1.53125 9.26123 1.59766 9.37549C2.07031 10.1929 4.59766 14.2505 9.01465 14.2505L9.20215 14.2505C13.3496 14.1455 15.7578 10.5005 16.4023 9.37549C16.4688 9.26123 16.5029 9.13184 16.5029 9.00049C16.5029 8.86865 16.4688 8.73926 16.4023 8.62549ZM9 11.6255C8.48047 11.6255 7.97363 11.4712 7.54199 11.1831C7.11035 10.8945 6.77344 10.4844 6.5752 10.0049C6.37598 9.52539 6.32422 8.99756 6.42578 8.48828C6.52637 7.979 6.77637 7.51123 7.14355 7.14404C7.51074 6.77686 7.97852 6.52686 8.48828 6.42578C8.99707 6.32422 9.52539 6.37646 10.0049 6.5752C10.4844 6.77393 10.8945 7.11035 11.1826 7.54199C11.4707 7.97363 11.625 8.48096 11.625 9.00049C11.625 9.69629 11.3486 10.3643 10.8564 10.8564C10.3643 11.3486 9.69629 11.6255 9 11.6255Z" fill="#272727" fill-opacity="0.700000" fill-rule="nonzero"/>
	</g>
</svg>
